<svg width="342" height="126" viewBox="0 0 342 126" fill="none" xmlns="http://www.w3.org/2000/svg">
<path d="M65.6205 52.0579L0.828541 125.171L0 126H0.828541H100.419C152.12 120.032 143.835 53.3842 100.419 52.0579H99.9221H65.6205Z" fill="url(#paint0_linear_142_1445)"/>
<path d="M97.3795 73.9421L162.171 0.828987L163 3.8147e-05H162.171L62.5808 3.8147e-05C10.8799 5.96846 19.1653 72.6158 62.5808 73.9421H63.0779H97.3795Z" fill="url(#paint1_linear_142_1445)"/>
<path d="M160.93 52.0078C162.633 52.0078 164.016 51.8203 165.078 51.4453C167.094 50.7266 168.102 49.3906 168.102 47.4375C168.102 46.2969 167.602 45.4141 166.602 44.7891C165.602 44.1797 164.031 43.6406 161.891 43.1719L158.234 42.3516C154.641 41.5391 152.156 40.6562 150.781 39.7031C148.453 38.1094 147.289 35.6172 147.289 32.2266C147.289 29.1328 148.414 26.5625 150.664 24.5156C152.914 22.4688 156.219 21.4453 160.578 21.4453C164.219 21.4453 167.32 22.4141 169.883 24.3516C172.461 26.2734 173.812 29.0703 173.938 32.7422H167C166.875 30.6641 165.969 29.1875 164.281 28.3125C163.156 27.7344 161.758 27.4453 160.086 27.4453C158.227 27.4453 156.742 27.8203 155.633 28.5703C154.523 29.3203 153.969 30.3672 153.969 31.7109C153.969 32.9453 154.516 33.8672 155.609 34.4766C156.312 34.8828 157.812 35.3594 160.109 35.9062L166.062 37.3359C168.672 37.9609 170.641 38.7969 171.969 39.8438C174.031 41.4688 175.062 43.8203 175.062 46.8984C175.062 50.0547 173.852 52.6797 171.43 54.7734C169.023 56.8516 165.617 57.8906 161.211 57.8906C156.711 57.8906 153.172 56.8672 150.594 54.8203C148.016 52.7578 146.727 49.9297 146.727 46.3359H153.617C153.836 47.9141 154.266 49.0938 154.906 49.875C156.078 51.2969 158.086 52.0078 160.93 52.0078ZM206.008 22.4531V28.5703H195.672V57H188.406V28.5703H178.023V22.4531H206.008ZM234.797 41.9062H218.016V50.7891H237.141V57H210.961V22.4531H236.297V28.5703H218.016V35.9062H234.797V41.9062ZM263.492 49.8984H250.766L248.375 57H240.828L253.156 22.4531H261.312L273.547 57H265.719L263.492 49.8984ZM261.477 43.9453L257.164 30.3516L252.711 43.9453H261.477ZM293.336 57H278.453V22.4531H293.336C295.477 22.4844 297.258 22.7344 298.68 23.2031C301.102 24 303.062 25.4609 304.562 27.5859C305.766 29.3047 306.586 31.1641 307.023 33.1641C307.461 35.1641 307.68 37.0703 307.68 38.8828C307.68 43.4766 306.758 47.3672 304.914 50.5547C302.414 54.8516 298.555 57 293.336 57ZM298.703 31.2656C297.594 29.3906 295.398 28.4531 292.117 28.4531H285.461V51H292.117C295.523 51 297.898 49.3203 299.242 45.9609C299.977 44.1172 300.344 41.9219 300.344 39.375C300.344 35.8594 299.797 33.1562 298.703 31.2656ZM341.531 22.4531L329.977 44.0156V57H322.758V44.0156L310.805 22.4531H319.312L326.484 37.5L333.352 22.4531H341.531Z" fill="#003999"/>
<path d="M234.219 69.9688H239V93H234.219V69.9688ZM262.625 93H257.812L248.406 76.6406V93H243.922V69.9688H248.969L258.141 86.0469V69.9688H262.625V93ZM277.547 93H267.625V69.9688H277.547C278.974 69.9896 280.161 70.1562 281.109 70.4688C282.724 71 284.031 71.974 285.031 73.3906C285.833 74.5365 286.38 75.776 286.672 77.1094C286.964 78.4427 287.109 79.7135 287.109 80.9219C287.109 83.9844 286.495 86.5781 285.266 88.7031C283.599 91.5677 281.026 93 277.547 93ZM281.125 75.8438C280.385 74.5938 278.922 73.9688 276.734 73.9688H272.297V89H276.734C279.005 89 280.589 87.8802 281.484 85.6406C281.974 84.4115 282.219 82.9479 282.219 81.25C282.219 78.9062 281.854 77.1042 281.125 75.8438ZM307.281 82.9375H296.094V88.8594H308.844V93H291.391V69.9688H308.281V74.0469H296.094V78.9375H307.281V82.9375ZM331.609 93H325.766L321.391 85.1562L316.766 93H311.172L318.578 81.2656L311.531 69.9688H317.281L321.391 77.4531L325.609 69.9688H331.172L324.125 81.0781L331.609 93Z" fill="url(#paint2_linear_142_1445)"/>
<defs>
<linearGradient id="paint0_linear_142_1445" x1="-78.7278" y1="3.89372" x2="247.654" y2="102.246" gradientUnits="userSpaceOnUse">
<stop offset="0.158912" stop-color="#004FD0"/>
<stop offset="0.406401" stop-color="#3280FF"/>
<stop offset="0.616138" stop-color="#5E7DFF"/>
<stop offset="0.807292" stop-color="#7A7AFF"/>
</linearGradient>
<linearGradient id="paint1_linear_142_1445" x1="241.728" y1="122.106" x2="-84.6537" y2="23.7537" gradientUnits="userSpaceOnUse">
<stop offset="0.158912" stop-color="#004FD0"/>
<stop offset="0.406401" stop-color="#3280FF"/>
<stop offset="0.616138" stop-color="#5E7DFF"/>
<stop offset="0.807292" stop-color="#7A7AFF"/>
</linearGradient>
<linearGradient id="paint2_linear_142_1445" x1="384.403" y1="129.11" x2="213.625" y2="-23.2727" gradientUnits="userSpaceOnUse">
<stop stop-color="#BDD5FE"/>
<stop offset="0.889507" stop-color="#3636F9"/>
</linearGradient>
</defs>
</svg>
